<svg xmlns="http://www.w3.org/2000/svg" width="847" height="334" viewBox="0 0 847 334">
<g>
<path d="M 88.40 244.90 C86.59,242.89 86.48,240.03 86.00,184.15 C85.72,151.89 85.14,124.94 84.69,124.25 C84.25,123.56 82.83,123.00 81.55,123.00 C80.27,123.00 78.16,122.14 76.86,121.08 C74.59,119.24 74.51,118.69 74.65,106.55 C74.75,98.85 75.25,93.41 75.94,92.57 C76.56,91.82 78.59,90.93 80.44,90.58 C82.29,90.23 84.24,89.40 84.77,88.72 C85.31,88.05 85.97,83.45 86.24,78.50 C87.34,58.59 98.25,40.28 115.00,30.25 C116.93,29.09 122.10,26.89 126.50,25.34 L 134.50 22.53 L 173.29 22.40 C210.23,22.28 212.20,22.37 214.54,24.21 C216.94,26.10 217.00,26.48 217.00,39.92 C217.00,52.64 216.84,53.83 214.90,55.60 C212.93,57.38 210.38,57.53 175.65,58.00 C135.06,58.55 135.50,58.48 128.75,64.80 C125.19,68.14 122.00,76.75 122.00,83.06 C122.00,87.55 122.27,88.15 124.68,89.07 C126.29,89.68 135.65,89.97 148.02,89.79 C164.39,89.56 169.02,89.78 170.34,90.87 C171.73,92.03 172.00,94.34 171.98,105.37 C171.98,112.59 171.63,119.03 171.21,119.69 C169.52,122.34 164.27,123.00 144.63,123.00 C130.23,123.00 124.05,123.35 123.20,124.20 C122.29,125.11 122.00,139.70 122.00,183.75 L 122.00 242.09 L 119.55 244.55 C117.18,246.91 116.58,247.00 103.70,247.00 C91.36,247.00 90.16,246.84 88.40,244.90 ZM 473.32 198.34 C472.66,198.20 472.08,198.12 471.59,197.88 C468.49,196.35 468.56,188.40 468.25,118.09 L 467.91 41.39 L 470.03 38.69 C472.14,36.01 472.19,36.00 485.51,36.00 C495.11,36.00 499.11,36.35 499.69,37.25 C500.14,37.94 500.73,56.69 501.00,78.92 C501.32,104.58 501.87,119.44 502.50,119.62 C503.05,119.77 508.90,112.88 515.50,104.29 C522.10,95.71 528.93,87.07 530.68,85.09 L 533.87 81.50 L 547.18 80.93 C554.51,80.61 561.74,80.77 563.26,81.28 C566.44,82.34 567.77,86.01 566.22,89.42 C565.65,90.66 557.44,101.32 547.96,113.09 C529.63,135.88 528.09,138.17 529.72,140.22 C530.27,140.92 535.60,147.80 541.56,155.50 C547.52,163.20 555.91,173.91 560.20,179.30 C566.51,187.23 568.00,189.76 568.00,192.53 C568.00,197.82 564.74,199.00 550.10,199.00 C543.09,199.00 537.03,198.51 535.54,197.83 C534.13,197.19 526.64,188.87 518.89,179.33 C511.15,169.80 504.42,162.00 503.94,162.00 C501.78,162.00 501.00,166.85 501.00,180.28 C501.00,190.11 501.07,194.62 498.86,196.72 C496.92,198.57 493.21,198.55 486.15,198.66 C480.29,198.74 474.52,198.60 473.32,198.34 ZM 308.00 200.89 C293.78,199.41 282.25,194.09 272.62,184.56 C256.69,168.80 250.68,140.55 258.40,117.67 C265.88,95.50 284.47,80.98 307.50,79.33 C330.56,77.67 350.09,87.37 358.19,104.50 C366.59,122.26 359.22,141.39 340.63,150.09 C333.86,153.25 320.30,156.53 310.00,157.47 C295.42,158.82 293.00,159.18 293.00,160.04 C293.00,160.53 294.38,162.50 296.06,164.42 C300.18,169.11 308.11,172.00 316.88,172.00 C325.33,172.00 331.56,170.17 339.19,165.46 C343.43,162.85 345.79,161.98 347.50,162.41 C348.81,162.74 352.38,165.96 355.44,169.56 C362.79,178.23 362.80,180.16 355.50,186.83 C343.95,197.38 325.83,202.74 308.00,200.89 ZM 602.76 199.44 C592.14,196.87 578.61,188.29 572.47,180.26 C567.80,174.14 562.41,163.00 560.52,155.54 C558.58,147.92 558.58,131.41 560.52,123.19 C565.02,104.07 578.05,89.14 596.50,81.96 C601.61,79.97 604.35,79.62 615.00,79.58 C628.90,79.53 634.34,80.76 643.53,86.02 C651.51,90.58 657.68,97.10 661.26,104.74 C663.94,110.47 664.39,112.57 664.40,119.46 C664.42,125.55 663.91,128.64 662.30,132.18 C659.65,138.01 652.98,145.34 647.27,148.69 C638.51,153.82 619.72,157.99 605.31,158.00 C600.80,158.00 596.86,158.42 596.54,158.94 C595.64,160.40 601.85,166.88 606.41,169.24 C609.34,170.76 612.95,171.48 619.14,171.80 C629.18,172.31 635.39,170.68 643.77,165.35 C646.67,163.51 649.80,162.00 650.73,162.00 C652.69,162.00 662.39,171.91 664.59,176.17 C666.62,180.09 665.01,183.27 658.50,188.23 C647.24,196.81 634.00,201.00 618.50,200.90 C613.00,200.86 605.92,200.21 602.76,199.44 ZM 676.00 254.34 C671.44,252.51 671.00,251.16 671.00,238.88 C671.00,231.85 670.83,228.67 672.32,226.82 C673.72,225.08 676.59,224.51 682.46,223.01 C691.17,220.78 694.67,219.10 699.55,214.82 C703.20,211.62 709.00,201.48 709.00,198.32 C709.00,197.36 705.68,188.69 701.62,179.04 C697.57,169.39 691.22,154.07 687.52,145.00 C683.81,135.93 677.16,119.75 672.73,109.06 C664.75,89.83 663.52,85.08 665.88,82.72 C666.69,81.90 672.00,81.39 681.92,81.18 C696.66,80.86 696.76,80.87 698.69,83.33 C699.75,84.68 704.83,97.83 709.96,112.55 C721.74,146.30 724.53,153.56 725.62,153.25 C726.11,153.11 726.52,152.66 726.54,152.25 C726.59,151.43 728.70,144.66 729.90,141.50 C730.99,138.61 736.00,123.15 742.47,102.70 C745.65,92.65 748.96,84.04 750.05,82.95 C751.79,81.21 753.46,81.00 765.31,81.00 C784.75,81.00 784.87,81.19 777.74,101.50 C771.43,119.48 756.45,161.16 746.83,187.50 C732.07,227.91 725.64,237.35 706.35,246.90 C694.97,252.53 680.41,256.10 676.00,254.34 ZM 396.00 199.57 C387.60,197.81 376.60,193.37 372.91,190.27 C370.90,188.58 370.00,186.90 370.00,184.85 C370.00,180.48 376.30,167.50 379.42,165.46 C381.98,163.78 382.25,163.82 388.78,166.80 C409.92,176.45 429.54,174.27 426.61,162.59 C425.71,158.98 422.44,157.17 411.78,154.38 C385.83,147.58 376.97,141.45 372.45,127.16 C369.97,119.32 370.80,107.14 374.27,100.50 C381.70,86.30 394.73,79.78 415.64,79.80 C431.17,79.83 448.58,85.37 452.66,91.60 C454.25,94.04 454.25,94.49 452.56,99.46 C451.57,102.36 449.47,106.81 447.88,109.36 C445.47,113.23 444.49,114.00 441.95,114.00 C440.27,114.00 437.65,113.35 436.13,112.57 C431.79,110.32 417.26,107.72 411.93,108.23 C403.40,109.05 399.95,113.29 403.06,119.11 C404.36,121.55 406.57,122.44 420.32,126.09 C446.50,133.05 458.00,143.98 458.00,161.93 C458.00,178.28 448.20,191.95 432.09,198.11 C424.93,200.85 405.75,201.62 396.00,199.57 ZM 188.00 198.31 C184.02,196.88 184.00,196.55 184.00,139.43 C184.00,89.32 184.15,84.12 185.65,82.87 C186.79,81.93 191.04,81.39 199.21,81.14 C213.12,80.73 215.00,81.56 215.00,88.15 C215.00,90.27 215.40,92.00 215.89,92.00 C216.38,92.00 218.95,90.21 221.60,88.02 C228.27,82.51 236.24,80.00 247.08,80.00 C261.22,80.00 262.80,82.81 257.03,97.76 C252.43,109.70 251.50,110.60 242.78,111.44 C234.09,112.29 228.63,114.55 224.29,119.13 C218.08,125.68 217.68,128.12 217.06,163.34 L 216.50 195.18 L 214.14 197.09 C212.12,198.73 210.19,198.99 200.64,198.92 C194.51,198.88 188.82,198.60 188.00,198.31 ZM 571.27 321.54 C566.71,319.53 564.01,314.63 564.00,308.38 C564.00,297.85 572.46,286.07 590.45,271.56 C595.15,267.77 595.44,265.18 590.80,268.43 C587.87,270.48 583.53,270.43 579.93,268.30 C577.17,266.67 576.97,266.68 574.78,268.73 C569.98,273.22 563.75,274.16 559.72,271.00 C555.06,267.33 555.19,259.64 560.23,242.50 C563.32,231.97 564.54,230.00 567.96,230.00 C571.69,230.00 572.56,232.53 570.57,237.64 C568.72,242.43 565.00,257.17 565.00,259.73 C565.00,260.77 565.63,262.48 566.40,263.53 C567.63,265.22 568.09,265.29 570.27,264.12 C573.96,262.15 576.47,256.82 579.93,243.65 C581.64,237.13 583.50,230.94 584.05,229.90 C585.31,227.56 590.79,227.29 591.65,229.52 C591.97,230.35 590.88,235.87 589.22,241.77 C584.99,256.87 584.82,257.80 586.01,260.02 C587.57,262.93 589.35,262.46 593.26,258.14 C596.66,254.37 598.11,250.80 602.94,234.26 C604.70,228.23 605.46,226.92 607.52,226.40 C608.88,226.06 610.72,226.06 611.61,226.40 C613.56,227.15 613.39,228.35 609.14,244.24 C604.62,261.12 604.89,262.58 611.40,256.82 C614.51,254.07 615.00,253.03 615.00,249.22 C615.00,237.74 621.18,227.58 630.73,223.36 C636.71,220.71 638.79,220.49 642.40,222.14 C644.71,223.19 648.00,228.34 648.00,230.90 C648.00,232.86 649.91,232.07 653.88,228.49 C657.96,224.80 661.00,224.62 661.00,228.07 C661.00,230.83 655.24,236.88 651.77,237.78 C649.04,238.49 648.58,239.21 647.09,245.16 C645.07,253.17 641.31,259.11 636.04,262.59 C631.30,265.73 626.61,266.03 621.08,263.54 C616.38,261.42 615.64,261.65 607.40,267.88 L 602.50 271.58 L 599.32 283.95 C593.64,306.12 589.40,315.40 583.11,319.52 C578.23,322.71 575.12,323.24 571.27,321.54 ZM 507.06 309.58 C505.24,307.38 506.26,302.74 521.68,243.23 C523.97,234.39 524.67,232.87 526.67,232.37 C529.93,231.55 532.00,232.58 532.00,235.02 C532.00,236.97 532.27,236.91 536.53,233.98 C542.69,229.74 546.49,229.75 550.29,233.99 C553.12,237.17 553.22,237.60 552.80,244.98 C551.76,262.89 539.44,277.00 524.84,277.00 C522.75,277.00 521.91,277.57 521.53,279.25 C518.06,294.72 514.83,307.44 513.98,309.03 C512.75,311.33 508.78,311.64 507.06,309.58 ZM 613.14 130.05 C628.61,128.43 635.00,125.21 635.00,119.06 C635.00,108.94 617.58,104.82 604.04,111.73 C599.64,113.97 597.94,115.58 595.77,119.53 C594.27,122.26 593.04,125.96 593.02,127.75 L 593.00 131.00 L 598.75 130.98 C601.91,130.97 608.39,130.56 613.14,130.05 ZM 315.99 128.88 C323.59,127.68 329.33,124.76 330.93,121.26 C332.27,118.32 330.17,113.96 325.87,110.75 C322.61,108.32 312.18,107.32 306.40,108.89 C298.26,111.09 291.75,117.49 290.41,124.60 C289.25,130.79 289.86,131.15 300.23,130.48 C305.33,130.16 312.42,129.44 315.99,128.88 ZM 744.03 247.78 C740.56,245.94 737.00,240.28 737.01,236.60 C737.02,230.87 741.86,225.61 748.05,224.61 C760.14,222.65 767.74,236.72 759.20,245.26 C755.69,248.77 748.24,250.01 744.03,247.78 ZM 532.14 268.00 C533.90,268.00 539.17,261.59 541.60,256.50 C543.90,251.66 544.75,244.13 543.39,240.58 C541.39,235.35 532.33,243.93 527.99,255.17 C526.35,259.44 525.00,263.83 525.00,264.92 C525.00,267.14 527.80,269.20 529.83,268.47 C530.56,268.21 531.60,268.00 532.14,268.00 ZM 580.84 310.06 C584.69,304.75 592.19,282.86 590.68,281.35 C589.73,280.40 578.10,293.05 574.93,298.50 C571.68,304.08 571.23,308.45 573.56,311.78 C575.79,314.97 577.60,314.54 580.84,310.06 ZM 632.47 254.85 C635.11,252.77 639.00,245.35 639.00,242.39 C639.00,241.60 637.93,240.55 636.63,240.05 C635.33,239.55 633.27,237.89 632.06,236.35 L 629.85 233.54 L 628.03 235.96 C624.08,241.20 622.81,250.85 625.56,254.78 C627.50,257.56 629.00,257.57 632.47,254.85 ZM 754.47 245.45 C758.85,243.37 761.75,238.01 760.46,234.39 C759.46,231.61 756.54,229.12 755.49,230.17 C755.16,230.50 754.84,233.09 754.77,235.92 L 754.66 241.06 L 751.62 240.88 C752.24,240.63 752.61,240.14 752.36,239.50 C752.05,238.68 750.93,238.00 749.89,238.00 C747.99,238.00 747.42,239.09 748.67,240.33 C748.88,240.55 749.13,240.71 749.40,240.83 C747.97,240.87 746.68,241.08 746.20,241.38 C745.32,241.92 745.00,240.52 745.00,236.06 C745.00,233.28 744.70,230.97 744.28,230.24 C745.26,230.04 746.89,230.02 749.51,230.11 C753.09,230.22 756.34,230.00 756.73,229.60 C757.99,228.34 754.62,227.03 750.06,227.02 C745.47,227.00 741.00,229.82 741.00,232.73 C741.00,233.26 741.21,233.59 741.53,233.63 C741.52,233.63 741.51,233.63 741.50,233.64 C737.98,234.99 740.86,242.77 745.89,245.50 C749.27,247.34 750.51,247.33 754.47,245.45 ZM 567.57 222.43 C564.28,219.13 567.09,214.69 572.16,215.18 C574.98,215.45 575.55,215.93 575.82,218.31 C576.00,219.86 575.61,221.77 574.95,222.56 C573.37,224.46 569.54,224.39 567.57,222.43 ZM 641.25 231.52 C640.74,228.88 639.48,228.41 637.05,229.95 C635.86,230.70 636.03,231.21 638.05,232.84 C641.01,235.23 641.89,234.87 641.25,231.52 ZM 748.00 233.50 C748.00,234.33 748.89,235.00 750.00,235.00 C751.11,235.00 752.00,234.33 752.00,233.50 C752.00,232.67 751.11,232.00 750.00,232.00 C748.89,232.00 748.00,232.67 748.00,233.50 ZM 743.07 230.98 C743.02,231.15 743.00,231.34 743.00,231.53 C743.00,231.75 742.95,231.98 742.87,232.20 C742.95,231.94 743.00,231.66 743.00,231.39 C743.00,231.24 743.02,231.10 743.07,230.98 Z" fill="rgba(30,75,56,1)"/>
<path d="M 748.67 240.33 C747.42,239.09 747.99,238.00 749.89,238.00 C750.93,238.00 752.05,238.68 752.36,239.50 C752.95,241.03 750.02,241.69 748.67,240.33 ZM 748.00 233.50 C748.00,232.67 748.89,232.00 750.00,232.00 C751.11,232.00 752.00,232.67 752.00,233.50 C752.00,234.33 751.11,235.00 750.00,235.00 C748.89,235.00 748.00,234.33 748.00,233.50 ZM 741.00 232.73 C741.00,229.82 745.47,227.00 750.06,227.02 C754.62,227.03 757.99,228.34 756.73,229.60 C756.34,230.00 753.09,230.22 749.51,230.11 C744.31,229.94 743.00,230.19 743.00,231.39 C743.00,232.21 742.55,233.16 742.00,233.50 C741.45,233.84 741.00,233.49 741.00,232.73 Z" fill="rgba(155,186,171,1)"/>
</g>
</svg>